<svg width="18" height="14" viewBox="0 0 18 14" fill="none" xmlns="http://www.w3.org/2000/svg">
<path d="M9.20312 3.71387L3.8125 8.16699V12.9424C3.8125 13.2061 4.01758 13.4111 4.28125 13.4111H7.5625C7.79688 13.4111 8.00195 13.2061 8.00195 12.9424V10.1299C8.00195 9.89551 8.23633 9.66113 8.4707 9.66113H10.3457C10.6094 9.66113 10.8145 9.89551 10.8145 10.1299V12.9424C10.8145 13.2061 11.0488 13.4111 11.2832 13.4111H14.5938C14.8281 13.4111 15.0625 13.2061 15.0625 12.9424V8.1377L9.64258 3.71387C9.58398 3.65527 9.49609 3.62598 9.4375 3.62598C9.34961 3.62598 9.26172 3.65527 9.20312 3.71387ZM17.7285 6.73145L15.2969 4.70996V0.666992C15.2969 0.461914 15.1211 0.31543 14.9453 0.31543H13.3047C13.0996 0.31543 12.9531 0.461914 12.9531 0.666992V2.77637L10.3164 0.608398C10.082 0.432617 9.75977 0.31543 9.4375 0.31543C9.08594 0.31543 8.76367 0.432617 8.5293 0.608398L1.11719 6.73145C1.0293 6.79004 0.970703 6.90723 0.970703 6.99512C0.970703 7.08301 1.0293 7.1709 1.05859 7.22949L1.82031 8.1377C1.87891 8.22559 1.9668 8.25488 2.08398 8.25488C2.17188 8.25488 2.25977 8.22559 2.31836 8.16699L9.20312 2.5127C9.26172 2.4541 9.34961 2.4248 9.4375 2.4248C9.49609 2.4248 9.58398 2.4541 9.64258 2.5127L16.5273 8.16699C16.5859 8.22559 16.6738 8.25488 16.7617 8.25488C16.8789 8.25488 16.9668 8.22559 17.0254 8.1377L17.7871 7.22949C17.8457 7.1709 17.875 7.08301 17.875 6.99512C17.875 6.90723 17.8164 6.79004 17.7285 6.73145Z" fill="white"/>
</svg>
