<svg width="22" height="20" viewBox="0 0 22 20" fill="none" xmlns="http://www.w3.org/2000/svg">
<path d="M19.4499 0H3.11654C1.82154 0 0.783203 0.857143 0.783203 1.90476V15.2381C0.783203 16.2857 1.82154 17.1429 3.11654 17.1429H7.7832L11.2832 20L14.7832 17.1429H19.4499C20.7332 17.1429 21.7832 16.2857 21.7832 15.2381V1.90476C21.7832 0.857143 20.7332 0 19.4499 0ZM12.4499 15.2381H10.1165V13.3333H12.4499V15.2381ZM14.8649 7.85714L13.8148 8.73338C12.9748 9.42861 12.4499 10 12.4499 11.4286H10.1165V10.9524C10.1165 9.90476 10.6414 8.95242 11.4814 8.25718L12.9281 7.05718C13.3598 6.71432 13.6165 6.2381 13.6165 5.71429C13.6165 4.66667 12.5665 3.80952 11.2832 3.80952C9.99987 3.80952 8.94987 4.66667 8.94987 5.71429H6.61654C6.61654 3.60952 8.70487 1.90476 11.2832 1.90476C13.8615 1.90476 15.9499 3.60952 15.9499 5.71429C15.9499 6.55238 15.5299 7.31429 14.8649 7.85714Z" fill="#323232"/>
</svg>
