<svg width="17" height="16" viewBox="0 0 17 16" fill="none" xmlns="http://www.w3.org/2000/svg">
<path d="M15.6777 11.9502L12.25 8.52246C11.5469 7.84863 10.5508 7.70215 9.73047 8.1123L6.625 5.00684V3.16113L2.875 0.348633L1 2.22363L3.8125 5.97363H5.62891L8.73438 9.1084C8.35352 9.92871 8.4707 10.9248 9.14453 11.5986L12.5723 15.0557C13.0117 15.4658 13.6855 15.4658 14.125 15.0557L15.6777 13.5029C16.0879 13.0635 16.0879 12.3896 15.6777 11.9502ZM10.6973 6.94043C11.5469 6.94043 12.3086 7.2627 12.8945 7.84863L13.4805 8.43457C13.9199 8.22949 14.3594 7.93652 14.7402 7.55566C15.8242 6.47168 16.2051 4.94824 15.8535 3.57129C15.7949 3.30762 15.4727 3.21973 15.2676 3.39551L13.0996 5.59277L11.1074 5.24121L10.7852 3.24902L12.9531 1.08105C13.1582 0.875977 13.041 0.553711 12.7773 0.495117C11.4004 0.143555 9.87695 0.524414 8.79297 1.6084C7.94336 2.42871 7.5625 3.54199 7.5625 4.62598L9.99414 7.02832C10.2285 6.96973 10.4629 6.94043 10.6973 6.94043ZM7.65039 9.34277L6.00977 7.70215L1.52734 12.1553C0.794922 12.8877 0.794922 14.0889 1.52734 14.8213C2.25977 15.5537 3.46094 15.5537 4.19336 14.8213L7.79688 11.1885C7.5918 10.6025 7.50391 9.9873 7.65039 9.34277ZM2.875 14.1768C2.46484 14.1768 2.17188 13.8838 2.17188 13.4736C2.17188 13.0928 2.46484 12.7705 2.875 12.7705C3.25586 12.7705 3.57812 13.0928 3.57812 13.4736C3.57812 13.8838 3.25586 14.1768 2.875 14.1768Z" fill="white"/>
</svg>
